<svg width="178" height="48" viewBox="0 0 178 48" fill="none" xmlns="http://www.w3.org/2000/svg">
<path d="M17.1309 24.5024C17.1523 24.3792 17.1791 24.2613 17.2005 24.1381L17.2541 24.1273C17.313 24.2827 17.3666 24.4381 17.4255 24.5935C17.6238 25.1346 17.806 25.6812 18.0256 26.2116C18.4275 27.16 19.2259 27.535 20.185 27.6422C20.6565 27.6958 21.1173 27.6744 21.5673 27.4976C22.3925 27.1707 22.7139 26.2384 22.2585 25.4722C22.0067 25.0489 21.5887 24.9578 21.144 24.9418C20.9833 24.9364 20.8172 24.9632 20.6511 24.9632C20.5975 24.9632 20.5279 24.9471 20.4904 24.9096C20.1796 24.5989 19.7724 23.6183 19.7616 23.1683C19.9277 23.1843 20.0939 23.1951 20.26 23.2111C20.6565 23.2433 21.0476 23.254 21.4334 23.12C21.7442 23.0129 21.9799 22.8146 22.1406 22.5253C22.2156 22.386 22.221 22.252 22.1406 22.1127C21.9102 21.7216 21.5834 21.518 21.1172 21.5662C20.56 21.6198 20.0671 21.8502 19.5741 22.0859C19.408 22.1609 19.2473 22.2467 19.0705 22.3378C18.8026 21.8877 18.5347 21.443 18.2453 20.9554C18.524 20.7732 18.7919 20.5696 19.0812 20.4142C19.7724 20.0499 20.5064 19.8784 21.2887 19.9106C22.0817 19.9427 22.73 20.4946 22.9551 21.3304C23.0569 21.7055 23.0729 22.0859 22.9175 22.4396C22.7568 22.7986 22.5746 23.1522 22.355 23.4737C22.221 23.6719 21.996 23.8059 21.7763 23.9987C22.0603 24.1005 22.3335 24.2184 22.6175 24.2881C22.9015 24.3577 23.1694 24.2452 23.3569 24.0255C23.5391 23.8112 23.6998 23.5701 23.8498 23.329C24.0427 23.0129 24.2142 22.686 24.4017 22.3645C24.8732 21.5716 25.6019 21.3197 26.486 21.3894C27.1611 21.443 27.6058 21.8609 27.9648 22.3699C28.4792 23.0932 28.656 23.9237 28.6614 24.7971C28.6667 25.5579 28.5649 26.3027 28.2381 26.9992C27.9059 27.7226 27.3915 28.2584 26.5717 28.3816C25.6448 28.5209 24.8196 28.2798 24.3856 27.16C24.1928 26.6563 24.1124 26.1259 24.2089 25.5847C24.2249 25.4829 24.2731 25.3811 24.3213 25.2793C24.3749 25.6062 24.525 25.8741 24.7339 26.1152C25.1358 26.5867 25.6555 26.6778 26.2234 26.5278C27.1879 26.2759 27.8738 25.424 27.9273 24.422C27.9488 23.9827 27.9166 23.5487 27.7666 23.1307C27.5308 22.4663 26.7432 22.2359 26.2128 22.7128C25.9609 22.9378 25.7734 23.2433 25.5698 23.5219C25.3608 23.8112 25.1733 24.1166 24.9643 24.406C24.7125 24.7489 24.3803 24.9364 23.9356 24.9043C23.673 24.8828 23.4051 24.9043 23.1051 24.9043C23.1801 25.0811 23.2551 25.2204 23.3033 25.365C23.7052 26.4956 23.6784 27.5672 22.8693 28.5317C22.296 29.2121 21.5513 29.4479 20.6886 29.3729C19.3277 29.255 18.4382 28.462 17.8006 27.3261C17.3988 26.6028 17.2166 25.8151 17.1684 24.99C17.163 24.8507 17.1416 24.7114 17.1309 24.5774V24.5024Z" fill="#05794B"/>
<path d="M22.1618 18.4316C22.3708 18.6835 22.553 18.9407 22.7726 19.1604C23.7157 20.1195 24.814 20.1034 25.8213 19.4818C26.0839 19.3211 26.3304 19.1282 26.5768 18.9407C26.7054 18.8442 26.7912 18.8335 26.8983 18.9835C27.0698 19.23 27.2895 19.4497 27.4609 19.6962C27.6592 19.9801 27.6485 20.0444 27.3806 20.2534C26.4697 20.9714 25.4409 21.2982 24.2836 21.1428C23.571 21.0464 23.0673 20.607 22.644 20.0551C22.3279 19.6426 22.1833 19.1657 22.135 18.6567C22.1297 18.5978 22.135 18.5335 22.1404 18.4745L22.1672 18.4316H22.1618Z" fill="#05794B"/>
<path d="M24.3429 17.5208C24.734 17.8851 25.109 18.228 25.527 18.6192C25.184 18.9407 24.8572 19.2461 24.5357 19.5568C24.4286 19.6586 24.3268 19.6694 24.2089 19.5622C23.9571 19.3372 23.6892 19.1282 23.4427 18.8978C23.3088 18.7745 23.298 18.6513 23.448 18.5013C23.7534 18.1905 24.0374 17.8583 24.3429 17.5208Z" fill="#05794B"/>
<path d="M22.6654 35.6792C16.0589 35.631 10.9152 30.4015 10.9366 23.7522C10.958 17.1136 16.2839 11.4019 22.4135 11.4394C29.7005 11.4823 34.8978 16.5778 34.9996 23.4468C35.1174 31.1731 27.8895 36.0221 22.6654 35.6792ZM12.6351 23.8915C12.6083 29.2335 17.1787 33.6164 22.7136 33.7128C28.8057 33.82 33.151 28.3815 33.1832 23.5271C33.2207 17.8851 28.6824 13.2022 23.1208 13.1808C17.5323 13.1647 12.6672 18.1316 12.6351 23.8861V23.8915Z" fill="#05794B"/>
<path d="M36.2373 37.6563C36.3391 36.0703 35.9319 34.7737 35.0049 33.6217C34.721 33.2734 34.3299 32.8823 34.3031 32.4912C34.2656 31.9554 34.5281 31.3928 34.662 30.8409C35.1121 30.9641 35.6265 30.9802 35.9962 31.2267C37.625 32.3036 38.1501 34.029 38.343 35.8186C38.493 37.1902 38.8091 38.3475 39.945 39.2745C40.304 39.5692 40.4595 40.4157 40.3309 40.914C40.1808 41.5034 39.57 41.9053 38.986 41.2034C37.8501 39.8424 36.2748 39.6656 34.6781 39.4781C32.7171 39.2477 31.0775 38.4064 30.113 36.6329C29.8826 36.2043 29.9255 35.3631 30.2095 34.9773C30.7078 34.3022 31.3829 34.5487 31.9509 35.1327C33.1029 36.3115 34.3138 37.4206 36.2427 37.6563H36.2373Z" fill="#05794B"/>
<path d="M23.5177 47.5526C21.9478 45.3183 19.7081 44.0377 19.4402 41.4337C19.3491 40.5818 19.3491 39.6977 19.4777 38.8565C19.7135 37.308 20.201 37.083 21.8085 37.6509C21.862 39.7406 21.0315 42.1249 23.3944 43.7163C24.5357 42.5804 24.6429 41.2355 24.5946 39.8584C24.5732 39.3119 24.45 38.7654 24.4607 38.2243C24.4714 37.8546 24.5839 37.2169 24.7554 37.174C25.1412 37.083 25.7413 37.158 25.9984 37.4206C26.4217 37.8492 26.8825 38.4761 26.8879 39.028C26.8986 40.2764 26.904 41.6427 26.4271 42.7518C25.7413 44.3538 24.6321 45.7684 23.5177 47.5526Z" fill="#05794B"/>
<path d="M9.45257 10.9947C9.84907 12.0074 10.058 13.1647 10.6903 13.9952C11.8637 15.5383 11.9066 16.1384 10.2938 17.6012C8.59529 16.0473 7.9041 14.0434 7.48618 11.8466C7.32008 10.9679 6.74675 10.1696 6.36633 9.32834C6.16272 8.88362 5.83055 8.42818 5.8252 7.9781C5.8252 7.6084 6.14132 7.1262 6.45744 6.90116C6.61282 6.794 7.23435 7.06725 7.41652 7.3298C8.04877 8.24602 8.93821 8.36924 9.92944 8.41746C11.7083 8.50319 13.5515 8.5568 14.9392 9.84809C15.4482 10.3196 16.0591 11.3698 15.8608 11.7823C15.3518 12.8164 14.4249 12.1842 13.6211 11.852C12.4317 11.3537 11.1993 10.9465 9.98838 10.4964C9.81156 10.6678 9.62939 10.834 9.45257 11.0054V10.9947Z" fill="#05794B"/>
<path d="M23.1528 0C24.5138 2.29324 25.8426 4.20606 26.791 6.29034C27.1821 7.14763 26.9035 8.40139 26.6731 9.41942C26.4534 10.3946 25.505 10.4589 24.787 10.0517C24.487 9.88024 24.3423 9.04975 24.4602 8.61038C24.9371 6.86366 24.0423 5.64737 23.0403 4.30786C21.6044 5.48127 21.2079 6.87438 21.4704 8.57824C21.5401 9.03903 21.3633 9.85881 21.0739 9.98204C20.3131 10.3035 19.5094 10.0892 19.1986 9.16761C19.0432 8.70682 18.8932 8.18172 18.9628 7.71557C19.4076 4.73114 21.6204 2.74868 23.1475 0H23.1528Z" fill="#05794B"/>
<path d="M9.59762 37.3295C11.8694 37.6134 13.3375 36.8312 14.7199 35.6846C15.036 35.422 15.6254 35.4756 16.0862 35.3898C16.1076 35.8828 16.322 36.4668 16.1237 36.8472C15.1111 38.7868 13.1554 39.1244 11.2586 39.4512C9.88695 39.687 8.44029 39.5959 7.52406 40.9997C7.38475 41.214 6.68284 41.0533 6.23812 41.0694C6.24883 40.3942 6.01309 39.2851 6.31314 39.1137C7.84018 38.2403 7.64731 36.7454 7.93664 35.422C8.28492 33.8145 8.8207 32.3197 10.3263 31.4463C10.7014 31.232 11.2425 31.307 11.7087 31.2534C11.6819 31.7196 11.7784 32.234 11.6123 32.6465C11.0068 34.1789 10.321 35.6792 9.59762 37.3348V37.3295Z" fill="#05794B"/>
<path d="M36.4463 10.2981C34.7799 10.8982 33.3547 11.3912 31.9509 11.9323C31.3186 12.1788 30.5899 12.7307 30.1988 11.868C30.038 11.5144 30.4667 10.7054 30.8418 10.3196C32.1063 9.0283 33.8101 8.75501 35.5033 8.74965C36.7195 8.74429 37.6839 8.49783 38.4716 7.49052C38.718 7.16904 39.3503 7.15297 39.8111 6.99759C39.9825 7.59769 40.4808 8.56214 40.2826 8.74432C38.6805 10.1642 38.7395 12.2377 37.9787 13.9737C37.5447 14.9596 36.9178 15.8866 36.2105 16.701C35.964 16.9903 35.0746 17.0921 34.7585 16.8725C34.1745 16.4653 33.9869 15.8009 34.6781 15.1418C35.889 13.9845 36.4677 12.5378 36.4517 10.2981H36.4463Z" fill="#05794B"/>
<path d="M36.6284 25.1774C38.5091 24.931 40.5987 25.9008 42.308 24.2076C41.1774 22.8038 39.7201 22.2948 37.9144 22.5359C37.4804 22.5949 37.0142 22.3805 36.5588 22.2948C36.816 21.8447 36.9767 21.2768 37.3518 20.9607C38.5198 19.9855 40.9042 20.1409 42.6402 21.2607C43.5939 21.8769 44.4941 22.5841 45.421 23.2378C46.0961 23.7147 46.2354 24.3309 45.5442 24.7809C44.0654 25.7507 42.5973 26.8438 40.9577 27.4064C39.9343 27.76 38.5681 27.385 37.4375 27.0581C36.9392 26.9134 36.6392 26.0829 36.248 25.5632C36.3766 25.4346 36.4999 25.306 36.6284 25.1774Z" fill="#05794B"/>
<path d="M3.31786 24.0041C4.72702 25.1347 6.16299 25.3168 7.71683 25.0971C8.53125 24.9793 9.3939 25.0596 9.36711 26.1634C9.3564 26.576 8.98667 27.2404 8.64376 27.3422C6.8756 27.878 5.1289 27.8351 3.53756 26.7046C2.56775 26.0187 1.59793 25.3329 0.612051 24.6739C0.00659194 24.2667 -0.304167 23.8005 0.419169 23.2968C1.65688 22.4396 2.85708 21.4108 4.23946 20.9286C5.50396 20.4892 6.98815 20.591 8.37052 20.6339C9.13672 20.6607 9.64573 21.3465 9.30282 22.102C9.15815 22.4181 8.36516 22.6539 7.9258 22.5735C6.14693 22.252 4.70026 22.8039 3.31253 23.9987L3.31786 24.0041Z" fill="#05794B"/>
<path d="M62.1412 27.5011V23.0694C62.1412 22.7193 62.0756 22.4895 61.9442 22.38C61.8129 22.2487 61.5722 22.1831 61.222 22.1831H58.563C56.3089 22.1831 55.1818 21.0888 55.1818 18.9003V13.8121C55.1818 11.6455 56.3636 10.5622 58.7272 10.5622H62.3382C64.7017 10.5622 65.8835 11.6455 65.8835 13.8121V16.7009H62.0756V14.3373C62.0756 13.9872 62.0099 13.7574 61.8786 13.6479C61.7473 13.5166 61.5065 13.451 61.1564 13.451H59.9089C59.5369 13.451 59.2852 13.5166 59.1539 13.6479C59.0226 13.7574 58.9569 13.9872 58.9569 14.3373V18.5064C58.9569 18.8566 59.0226 19.0973 59.1539 19.2286C59.2852 19.338 59.5369 19.3927 59.9089 19.3927H62.5023C64.8002 19.3927 65.9492 20.4651 65.9492 22.6098V28.0264C65.9492 30.193 64.7565 31.2763 62.371 31.2763H58.8256C56.4402 31.2763 55.2474 30.193 55.2474 28.0264V25.1704H59.0226V27.5011C59.0226 27.8513 59.0883 28.092 59.2196 28.2233C59.3509 28.3327 59.6026 28.3875 59.9746 28.3875H61.222C61.5722 28.3875 61.8129 28.3327 61.9442 28.2233C62.0756 28.092 62.1412 27.8513 62.1412 27.5011ZM68.8844 10.5622H72.6596V31.2763H68.8844V10.5622ZM79.3451 31.2763H75.9967V10.5622H80.133L83.6127 22.8724L87.0924 10.5622H91.2286V31.2763H87.9131V16.7337L85.1556 26.7789H82.1026L79.3451 16.7665V31.2763ZM94.398 10.5622H102.014C104.399 10.5622 105.592 11.6455 105.592 13.8121V20.4104C105.592 22.577 104.399 23.6603 102.014 23.6603H98.1732V31.2763H94.398V10.5622ZM101.817 19.8852V14.3373C101.817 13.9872 101.751 13.7574 101.62 13.6479C101.489 13.5166 101.248 13.451 100.898 13.451H98.1732V20.7715H100.898C101.248 20.7715 101.489 20.7168 101.62 20.6074C101.751 20.476 101.817 20.2353 101.817 19.8852ZM111.798 28.3875H117.313V31.2763H108.023V10.5622H111.798V28.3875ZM122.795 28.3875H129.097V31.2763H118.987V10.5622H128.835V13.451H122.795V19.1958H127.883V22.1174H122.795V28.3875Z" fill="#05794B"/>
<path d="M172.199 37.7505C172.201 37.7374 172.204 37.7249 172.207 37.7118L172.212 37.7107C172.219 37.7272 172.224 37.7437 172.231 37.7602C172.252 37.8177 172.271 37.8757 172.294 37.9321C172.337 38.0328 172.422 38.0727 172.524 38.0841C172.574 38.0897 172.623 38.0875 172.671 38.0687C172.758 38.034 172.792 37.9349 172.744 37.8535C172.717 37.8086 172.673 37.7989 172.626 37.7972C172.608 37.7966 172.591 37.7995 172.573 37.7995C172.567 37.7995 172.56 37.7977 172.556 37.7938C172.523 37.7608 172.48 37.6566 172.479 37.6088C172.496 37.6105 172.514 37.6116 172.532 37.6133C172.574 37.6167 172.615 37.6179 172.656 37.6037C172.689 37.5923 172.714 37.5712 172.731 37.5405C172.739 37.5257 172.74 37.5114 172.731 37.4966C172.707 37.4551 172.672 37.4335 172.623 37.4386C172.564 37.4443 172.511 37.4688 172.459 37.4938C172.441 37.5018 172.424 37.5109 172.405 37.5206C172.377 37.4727 172.348 37.4255 172.318 37.3737C172.347 37.3543 172.376 37.3327 172.406 37.3162C172.48 37.2775 172.558 37.2593 172.641 37.2627C172.725 37.2661 172.794 37.3247 172.818 37.4135C172.829 37.4534 172.83 37.4938 172.814 37.5314C172.797 37.5695 172.778 37.6071 172.754 37.6412C172.74 37.6623 172.716 37.6765 172.693 37.697C172.723 37.7078 172.752 37.7203 172.782 37.7277C172.812 37.7351 172.841 37.7232 172.861 37.6998C172.88 37.6771 172.897 37.6515 172.913 37.6259C172.933 37.5923 172.952 37.5575 172.972 37.5234C173.022 37.4392 173.099 37.4124 173.193 37.4198C173.265 37.4255 173.312 37.4699 173.35 37.524C173.405 37.6008 173.424 37.689 173.424 37.7818C173.425 37.8626 173.414 37.9418 173.379 38.0157C173.344 38.0926 173.289 38.1495 173.202 38.1626C173.104 38.1774 173.016 38.1518 172.97 38.0328C172.949 37.9793 172.941 37.923 172.951 37.8655C172.953 37.8547 172.958 37.8439 172.963 37.833C172.969 37.8678 172.985 37.8962 173.007 37.9218C173.05 37.9719 173.105 37.9816 173.165 37.9657C173.268 37.9389 173.34 37.8484 173.346 37.742C173.348 37.6953 173.345 37.6492 173.329 37.6048C173.304 37.5342 173.22 37.5097 173.164 37.5604C173.137 37.5843 173.117 37.6167 173.096 37.6463C173.074 37.6771 173.054 37.7095 173.031 37.7403C173.005 37.7767 172.969 37.7966 172.922 37.7932C172.894 37.7909 172.866 37.7932 172.834 37.7932C172.842 37.812 172.85 37.8268 172.855 37.8421C172.898 37.9622 172.895 38.0761 172.809 38.1785C172.748 38.2508 172.669 38.2759 172.577 38.2679C172.433 38.2554 172.338 38.1711 172.27 38.0505C172.228 37.9736 172.208 37.89 172.203 37.8023C172.203 37.7875 172.2 37.7727 172.199 37.7585V37.7505Z" fill="#05794B"/>
<path d="M172.734 37.1056C172.756 37.1324 172.775 37.1597 172.798 37.183C172.899 37.2849 173.015 37.2832 173.122 37.2172C173.15 37.2001 173.176 37.1796 173.203 37.1597C173.216 37.1495 173.225 37.1483 173.237 37.1643C173.255 37.1904 173.278 37.2138 173.296 37.24C173.318 37.2701 173.316 37.277 173.288 37.2991C173.191 37.3754 173.082 37.4101 172.959 37.3936C172.883 37.3834 172.83 37.3367 172.785 37.2781C172.751 37.2343 172.736 37.1836 172.731 37.1295C172.73 37.1233 172.731 37.1164 172.731 37.1102L172.734 37.1056H172.734Z" fill="#05794B"/>
<path d="M172.964 37.0089C173.006 37.0476 173.045 37.084 173.09 37.1256C173.053 37.1597 173.019 37.1922 172.985 37.2252C172.973 37.236 172.962 37.2371 172.95 37.2257C172.923 37.2018 172.895 37.1796 172.868 37.1552C172.854 37.1421 172.853 37.129 172.869 37.113C172.901 37.08 172.932 37.0447 172.964 37.0089Z" fill="#05794B"/>
<path d="M172.787 38.9379C172.085 38.9328 171.539 38.3772 171.541 37.6709C171.543 36.9656 172.109 36.3589 172.76 36.3628C173.534 36.3674 174.086 36.9087 174.097 37.6384C174.11 38.4592 173.342 38.9743 172.787 38.9379ZM171.721 37.6857C171.719 38.2531 172.204 38.7187 172.792 38.729C173.439 38.7404 173.901 38.1626 173.904 37.6469C173.908 37.0476 173.426 36.5501 172.835 36.5478C172.242 36.5461 171.725 37.0738 171.721 37.6851V37.6857Z" fill="#05794B"/>
<path d="M174.229 39.1479C174.24 38.9794 174.196 38.8416 174.098 38.7193C174.068 38.6823 174.026 38.6407 174.023 38.5992C174.019 38.5422 174.047 38.4825 174.061 38.4239C174.109 38.437 174.164 38.4387 174.203 38.4648C174.376 38.5792 174.432 38.7625 174.453 38.9526C174.468 39.0984 174.502 39.2213 174.623 39.3198C174.661 39.3511 174.677 39.441 174.664 39.4939C174.648 39.5566 174.583 39.5992 174.521 39.5247C174.4 39.3801 174.233 39.3613 174.063 39.3414C173.855 39.3169 173.681 39.2276 173.578 39.0392C173.554 38.9936 173.558 38.9043 173.588 38.8633C173.641 38.7916 173.713 38.8177 173.773 38.8798C173.896 39.005 174.024 39.1228 174.229 39.1479H174.229Z" fill="#05794B"/>
<path d="M172.877 40.1992C172.711 39.9619 172.473 39.8258 172.444 39.5492C172.435 39.4587 172.435 39.3648 172.448 39.2754C172.473 39.1109 172.525 39.087 172.696 39.1473C172.702 39.3693 172.613 39.6226 172.864 39.7917C172.986 39.671 172.997 39.5281 172.992 39.3818C172.99 39.3238 172.977 39.2657 172.978 39.2082C172.979 39.169 172.991 39.1012 173.009 39.0967C173.05 39.087 173.114 39.095 173.141 39.1229C173.186 39.1684 173.235 39.235 173.236 39.2936C173.237 39.4262 173.237 39.5714 173.187 39.6892C173.114 39.8594 172.996 40.0097 172.877 40.1992Z" fill="#05794B"/>
<path d="M171.383 36.3155C171.426 36.4231 171.448 36.5461 171.515 36.6343C171.64 36.7982 171.644 36.862 171.473 37.0174C171.292 36.8523 171.219 36.6394 171.174 36.406C171.157 36.3127 171.096 36.2279 171.056 36.1385C171.034 36.0913 170.999 36.0429 170.998 35.9951C170.998 35.9558 171.032 35.9046 171.065 35.8807C171.082 35.8693 171.148 35.8983 171.167 35.9262C171.234 36.0235 171.329 36.0366 171.434 36.0418C171.623 36.0509 171.819 36.0566 171.966 36.1937C172.02 36.2438 172.085 36.3554 172.064 36.3992C172.01 36.5091 171.912 36.4419 171.826 36.4066C171.7 36.3537 171.569 36.3104 171.44 36.2626C171.422 36.2808 171.402 36.2985 171.383 36.3167V36.3155Z" fill="#05794B"/>
<path d="M172.84 35.1476C172.984 35.3912 173.125 35.5944 173.226 35.8158C173.268 35.9069 173.238 36.0401 173.214 36.1483C173.19 36.2519 173.089 36.2587 173.013 36.2154C172.981 36.1972 172.966 36.109 172.978 36.0623C173.029 35.8768 172.934 35.7475 172.828 35.6052C172.675 35.7299 172.633 35.8779 172.661 36.0589C172.668 36.1078 172.649 36.1949 172.619 36.208C172.538 36.2422 172.452 36.2194 172.419 36.1215C172.403 36.0726 172.387 36.0168 172.394 35.9673C172.442 35.6502 172.677 35.4396 172.839 35.1476H172.84Z" fill="#05794B"/>
<path d="M171.398 39.1132C171.64 39.1434 171.796 39.0603 171.943 38.9385C171.976 38.9106 172.039 38.9163 172.088 38.9072C172.09 38.9595 172.113 39.0216 172.092 39.062C171.984 39.268 171.776 39.3039 171.575 39.3386C171.429 39.3637 171.275 39.354 171.178 39.5031C171.163 39.5259 171.089 39.5088 171.041 39.5105C171.043 39.4388 171.018 39.321 171.049 39.3027C171.212 39.21 171.191 39.0512 171.222 38.9106C171.259 38.7398 171.316 38.581 171.476 38.4882C171.516 38.4655 171.573 38.4734 171.623 38.4677C171.62 38.5173 171.63 38.5719 171.612 38.6157C171.548 38.7785 171.475 38.9379 171.398 39.1138V39.1132Z" fill="#05794B"/>
<path d="M174.251 36.2416C174.074 36.3053 173.923 36.3577 173.774 36.4152C173.707 36.4414 173.629 36.5 173.588 36.4084C173.571 36.3708 173.616 36.2848 173.656 36.2439C173.79 36.1067 173.971 36.0777 174.151 36.0771C174.28 36.0765 174.383 36.0503 174.467 35.9433C174.493 35.9092 174.56 35.9075 174.609 35.891C174.627 35.9547 174.68 36.0572 174.659 36.0765C174.489 36.2274 174.495 36.4476 174.414 36.6321C174.368 36.7368 174.301 36.8353 174.226 36.9218C174.2 36.9525 174.106 36.9633 174.072 36.94C174.01 36.8967 173.99 36.8261 174.064 36.7561C174.192 36.6332 174.254 36.4795 174.252 36.2416H174.251Z" fill="#05794B"/>
<path d="M174.271 37.8223C174.471 37.7961 174.693 37.8991 174.874 37.7193C174.754 37.5701 174.599 37.5161 174.407 37.5417C174.361 37.5479 174.312 37.5252 174.263 37.516C174.291 37.4682 174.308 37.4079 174.348 37.3743C174.472 37.2707 174.725 37.2872 174.91 37.4062C175.011 37.4717 175.106 37.5468 175.205 37.6162C175.277 37.6669 175.291 37.7323 175.218 37.7802C175.061 37.8832 174.905 37.9993 174.731 38.0591C174.622 38.0966 174.477 38.0568 174.357 38.0221C174.304 38.0067 174.272 37.9185 174.23 37.8633C174.244 37.8496 174.257 37.8359 174.271 37.8223Z" fill="#05794B"/>
<path d="M170.731 37.6976C170.881 37.8177 171.034 37.8371 171.199 37.8137C171.285 37.8012 171.377 37.8097 171.374 37.927C171.373 37.9708 171.334 38.0414 171.297 38.0522C171.109 38.1091 170.924 38.1046 170.755 37.9845C170.652 37.9116 170.549 37.8388 170.444 37.7688C170.38 37.7255 170.347 37.676 170.423 37.6225C170.555 37.5314 170.682 37.4221 170.829 37.3709C170.964 37.3242 171.121 37.335 171.268 37.3396C171.35 37.3424 171.404 37.4153 171.367 37.4955C171.352 37.5291 171.268 37.5542 171.221 37.5456C171.032 37.5115 170.878 37.5701 170.731 37.697L170.731 37.6976Z" fill="#05794B"/>
<path d="M131.373 10.6243H147.137V13.4999H131.373V10.6243ZM133.729 12.0103H137.679V25.938C137.679 26.3313 137.748 26.5909 137.886 26.7178C138.025 26.8453 138.268 26.9085 138.614 26.9085H139.826C140.219 26.9085 140.49 26.8339 140.64 26.6831C140.79 26.5334 140.866 26.2732 140.866 25.9033L141.281 27.8089C141.281 28.5016 141.154 29.0042 140.9 29.3162C140.645 29.6281 140.149 29.784 139.41 29.784H137.262C136.106 29.784 135.229 29.5131 134.629 28.9701C134.028 28.4276 133.728 27.5443 133.728 26.3199V12.0115L133.729 12.0103ZM140.866 11.9409H144.781V32.486H140.866V11.9409ZM145.786 10.6243H154.412V13.4999H145.786V10.6243ZM148.142 12.7725H152.056V32.486H148.142V12.7725ZM153.061 10.6243H170.107V13.4999H153.061V10.6243ZM156.387 15.9594C157.196 15.9594 157.86 16.0346 158.38 16.1848C158.899 16.3351 159.338 16.5776 159.696 16.9123C160.054 17.2475 160.395 17.7034 160.719 18.2806L164.114 24.1706L158.709 32.4854H154.24L160.58 22.7152L160.13 25.1753L157.636 20.6712C157.266 20.0018 156.908 19.534 156.562 19.2682C156.215 19.0029 155.707 18.8697 155.037 18.8697H154.067V15.9594H156.389H156.387ZM165.603 23.0966V25.7991H161.584V23.0966H165.603ZM167.751 12.4259V32.4854H163.836V12.4259H167.751ZM170.072 3.86856L175.026 10.9363H171.181C170.603 10.4513 170.02 9.86845 169.431 9.18656C168.842 8.5058 168.213 7.73739 167.543 6.88245L165.36 3.86856H170.072ZM168.756 10.6243H177.382V13.4999H168.756V10.6243ZM171.111 12.7725H175.026V32.486H171.111V12.7725Z" fill="#05794B"/>
<path d="M148.105 31.5189C148.105 32.6727 148.341 33.7821 148.766 34.7878C149.405 36.2973 150.467 37.5752 151.806 38.4802C152.476 38.9327 153.216 39.2919 154.006 39.5378C154.796 39.7837 155.637 39.9157 156.502 39.9157H167.728V35.9883H156.502C155.88 35.9883 155.297 35.863 154.763 35.6376C153.964 35.3001 153.278 34.7303 152.795 34.016C152.554 33.6591 152.364 33.2664 152.234 32.8486C152.104 32.4302 152.033 31.9857 152.033 31.5189V29.5552H148.106V31.5189H148.105Z" fill="#05794B"/>
</svg>
