<svg width="41" height="41" viewBox="0 0 41 41" fill="none" xmlns="http://www.w3.org/2000/svg">
<g clip-path="url(#clip0_108_51883)">
<path d="M40.3828 0H0V40.3828H40.3828V0Z" fill="#05794B"/>
<path d="M29.4883 29.9859C29.4895 29.9791 29.4909 29.9726 29.4921 29.9658L29.4951 29.9652C29.4983 29.9738 29.5013 29.9824 29.5045 29.9909C29.5155 30.0208 29.5255 30.051 29.5377 30.0802C29.5598 30.1326 29.6039 30.1532 29.6568 30.1592C29.6828 30.1621 29.7082 30.1609 29.7331 30.1512C29.7786 30.1331 29.7963 30.0817 29.7712 30.0394C29.7573 30.0161 29.7342 30.0111 29.7097 30.0102C29.7008 30.0099 29.6917 30.0113 29.6825 30.0113C29.6796 30.0113 29.6757 30.0105 29.6736 30.0084C29.6565 29.9912 29.634 29.9371 29.6334 29.9123C29.6426 29.9132 29.6518 29.9138 29.6609 29.9147C29.6828 29.9165 29.7044 29.917 29.7257 29.9097C29.7428 29.9037 29.7558 29.8928 29.7647 29.8768C29.7688 29.8692 29.7691 29.8618 29.7647 29.8541C29.752 29.8325 29.7339 29.8213 29.7082 29.8239C29.6775 29.8269 29.6503 29.8396 29.6231 29.8526C29.6139 29.8567 29.6051 29.8615 29.5953 29.8665C29.5805 29.8417 29.5657 29.8171 29.5498 29.7902C29.5651 29.7802 29.5799 29.7689 29.5959 29.7604C29.634 29.7403 29.6745 29.7308 29.7177 29.7326C29.7614 29.7343 29.7972 29.7648 29.8096 29.8109C29.8152 29.8316 29.8161 29.8526 29.8076 29.8721C29.7987 29.8919 29.7886 29.9114 29.7765 29.9292C29.7691 29.9401 29.7567 29.9475 29.7446 29.9581C29.7603 29.9638 29.7753 29.9703 29.791 29.9741C29.8067 29.9779 29.8215 29.9717 29.8318 29.9596C29.8419 29.9478 29.8507 29.9345 29.859 29.9212C29.8696 29.9037 29.8791 29.8857 29.8894 29.868C29.9155 29.8242 29.9557 29.8103 30.0044 29.8142C30.0417 29.8171 30.0662 29.8402 30.086 29.8683C30.1144 29.9082 30.1242 29.954 30.1245 30.0022C30.1248 30.0442 30.1192 30.0853 30.1011 30.1237C30.0828 30.1636 30.0544 30.1932 30.0092 30.2C29.958 30.2076 29.9125 30.1943 29.8886 30.1326C29.8779 30.1048 29.8735 30.0755 29.8788 30.0456C29.8797 30.04 29.8824 30.0344 29.885 30.0288C29.888 30.0468 29.8962 30.0616 29.9078 30.0749C29.9299 30.1009 29.9586 30.106 29.99 30.0977C30.0432 30.0838 30.081 30.0368 30.084 29.9815C30.0852 29.9572 30.0834 29.9333 30.0751 29.9102C30.0621 29.8736 30.0186 29.8609 29.9894 29.8872C29.9755 29.8996 29.9651 29.9165 29.9539 29.9318C29.9424 29.9478 29.932 29.9646 29.9205 29.9806C29.9066 29.9995 29.8883 30.0099 29.8637 30.0081C29.8492 30.0069 29.8345 30.0081 29.8179 30.0081C29.822 30.0179 29.8262 30.0255 29.8288 30.0335C29.851 30.0959 29.8495 30.155 29.8049 30.2082C29.7733 30.2458 29.7322 30.2588 29.6846 30.2547C29.6095 30.2481 29.5604 30.2044 29.5252 30.1417C29.5031 30.1018 29.493 30.0584 29.4904 30.0128C29.4901 30.0051 29.4889 29.9975 29.4883 29.9901V29.9859Z" fill="white"/>
<path d="M29.7662 29.651C29.7778 29.6649 29.7878 29.6791 29.8 29.6912C29.852 29.7441 29.9126 29.7432 29.9682 29.7089C29.9826 29.7 29.9962 29.6894 30.0098 29.6791C30.0169 29.6737 30.0217 29.6731 30.0276 29.6814C30.037 29.695 30.0492 29.7071 30.0586 29.7207C30.0696 29.7364 30.069 29.74 30.0542 29.7515C30.0039 29.7911 29.9472 29.8091 29.8833 29.8006C29.844 29.7952 29.8162 29.771 29.7929 29.7405C29.7754 29.7178 29.7674 29.6915 29.7648 29.6634C29.7645 29.6601 29.7648 29.6566 29.7651 29.6533L29.7665 29.651H29.7662Z" fill="white"/>
<path d="M29.8864 29.6007C29.908 29.6208 29.9287 29.6398 29.9518 29.6613C29.9329 29.6791 29.9148 29.6959 29.8971 29.7131C29.8912 29.7187 29.8856 29.7193 29.8791 29.7134C29.8652 29.701 29.8504 29.6894 29.8368 29.6767C29.8294 29.6699 29.8288 29.6631 29.8371 29.6548C29.8539 29.6377 29.8696 29.6194 29.8864 29.6007Z" fill="white"/>
<path d="M29.7946 30.6026C29.4301 30.5999 29.1463 30.3114 29.1475 29.9445C29.1486 29.5782 29.4425 29.2631 29.7807 29.2652C30.1828 29.2675 30.4695 29.5487 30.4751 29.9277C30.4816 30.354 30.0828 30.6215 29.7946 30.6026ZM29.2412 29.9522C29.2397 30.247 29.4919 30.4888 29.7973 30.4941C30.1334 30.5 30.3731 30.2 30.3749 29.9321C30.377 29.6208 30.1266 29.3624 29.8197 29.3613C29.5114 29.3604 29.243 29.6344 29.2412 29.9519V29.9522Z" fill="white"/>
<path d="M30.5433 30.7117C30.549 30.6242 30.5265 30.5526 30.4754 30.4891C30.4597 30.4698 30.4381 30.4483 30.4366 30.4267C30.4346 30.3971 30.449 30.3661 30.4564 30.3356C30.4813 30.3424 30.5096 30.3433 30.53 30.3569C30.6199 30.4163 30.6489 30.5115 30.6595 30.6103C30.6678 30.686 30.6852 30.7498 30.7479 30.801C30.7677 30.8172 30.7763 30.8639 30.7692 30.8914C30.7609 30.9239 30.7272 30.9461 30.695 30.9074C30.6323 30.8323 30.5454 30.8225 30.4573 30.8122C30.3491 30.7995 30.2587 30.7531 30.2054 30.6552C30.1927 30.6316 30.1951 30.5851 30.2108 30.5639C30.2383 30.5266 30.2755 30.5402 30.3068 30.5724C30.3704 30.6375 30.4372 30.6987 30.5436 30.7117H30.5433Z" fill="white"/>
<path d="M29.8408 31.2577C29.7542 31.1344 29.6306 31.0638 29.6158 30.9201C29.6108 30.8731 29.6108 30.8243 29.6179 30.7779C29.6309 30.6925 29.6578 30.6801 29.7465 30.7114C29.7495 30.8267 29.7037 30.9583 29.834 31.0461C29.897 30.9834 29.9029 30.9092 29.9002 30.8332C29.8991 30.803 29.8923 30.7729 29.8929 30.743C29.8934 30.7226 29.8997 30.6875 29.9091 30.6851C29.9304 30.6801 29.9635 30.6842 29.9777 30.6987C30.0011 30.7223 30.0265 30.7569 30.0268 30.7874C30.0274 30.8563 30.0277 30.9316 30.0013 30.9928C29.9635 31.0812 29.9023 31.1593 29.8408 31.2577Z" fill="white"/>
<path d="M29.0654 29.2406C29.0872 29.2965 29.0988 29.3604 29.1337 29.4062C29.1984 29.4913 29.2008 29.5244 29.1118 29.6051C29.0181 29.5194 28.9799 29.4088 28.9569 29.2876C28.9477 29.2392 28.9161 29.1951 28.8951 29.1487C28.8839 29.1242 28.8655 29.099 28.8652 29.0742C28.8652 29.0538 28.8827 29.0272 28.9001 29.0148C28.9087 29.0089 28.943 29.0239 28.953 29.0384C28.9879 29.089 29.037 29.0958 29.0917 29.0984C29.1898 29.1032 29.2915 29.1061 29.3681 29.1774C29.3962 29.2034 29.4299 29.2613 29.4189 29.2841C29.3909 29.3411 29.3397 29.3063 29.2954 29.2879C29.2297 29.2604 29.1617 29.238 29.0949 29.2131C29.0852 29.2226 29.0751 29.2318 29.0654 29.2412V29.2406Z" fill="white"/>
<path d="M29.821 28.634C29.8961 28.7606 29.9694 28.8661 30.0217 28.9811C30.0433 29.0284 30.028 29.0976 30.0152 29.1537C30.0031 29.2076 29.9508 29.2111 29.9112 29.1886C29.8946 29.1792 29.8866 29.1333 29.8931 29.1091C29.9195 29.0127 29.8701 28.9456 29.8148 28.8717C29.7356 28.9365 29.7137 29.0133 29.7282 29.1073C29.732 29.1328 29.7223 29.178 29.7063 29.1848C29.6643 29.2025 29.62 29.1907 29.6028 29.1399C29.5943 29.1144 29.586 29.0855 29.5898 29.0597C29.6144 28.8951 29.7365 28.7857 29.8207 28.634H29.821Z" fill="white"/>
<path d="M29.0725 30.6937C29.1978 30.7093 29.2788 30.6662 29.3551 30.6029C29.3725 30.5884 29.4051 30.5914 29.4305 30.5867C29.4317 30.6139 29.4435 30.6461 29.4325 30.6671C29.3767 30.7741 29.2688 30.7927 29.1641 30.8107C29.0884 30.8237 29.0086 30.8187 28.9581 30.8962C28.9504 30.908 28.9117 30.8991 28.8871 30.9C28.8877 30.8628 28.8747 30.8016 28.8913 30.7921C28.9755 30.7439 28.9649 30.6614 28.9808 30.5884C29 30.4997 29.0296 30.4173 29.1127 30.3691C29.1334 30.3572 29.1632 30.3614 29.189 30.3584C29.1875 30.3841 29.1928 30.4125 29.1836 30.4353C29.1502 30.5198 29.1124 30.6026 29.0725 30.694V30.6937Z" fill="white"/>
<path d="M30.5546 29.2022C30.4627 29.2353 30.384 29.2625 30.3066 29.2924C30.2717 29.306 30.2315 29.3364 30.2099 29.2888C30.2011 29.2693 30.2247 29.2247 30.2454 29.2034C30.3152 29.1322 30.4092 29.1171 30.5026 29.1168C30.5697 29.1165 30.6229 29.1029 30.6664 29.0473C30.68 29.0296 30.7149 29.0287 30.7403 29.0201C30.7497 29.0532 30.7772 29.1064 30.7663 29.1165C30.6779 29.1948 30.6812 29.3092 30.6392 29.405C30.6152 29.4594 30.5806 29.5106 30.5416 29.5555C30.528 29.5715 30.4789 29.5771 30.4615 29.565C30.4293 29.5425 30.4189 29.5058 30.4571 29.4695C30.5239 29.4056 30.5558 29.3258 30.5549 29.2022H30.5546Z" fill="white"/>
<path d="M30.564 30.0232C30.6677 30.0096 30.783 30.0631 30.8773 29.9697C30.8149 29.8922 30.7345 29.8641 30.6349 29.8774C30.611 29.8807 30.5852 29.8689 30.5601 29.8641C30.5743 29.8393 30.5832 29.808 30.6039 29.7905C30.6683 29.7367 30.7999 29.7453 30.8957 29.8071C30.9483 29.8411 30.9979 29.8801 31.0491 29.9162C31.0863 29.9425 31.094 29.9765 31.0559 30.0013C30.9743 30.0548 30.8933 30.1151 30.8028 30.1462C30.7464 30.1657 30.671 30.145 30.6086 30.1269C30.5811 30.119 30.5645 30.0731 30.543 30.0445C30.5501 30.0374 30.5569 30.0303 30.564 30.0232Z" fill="white"/>
<path d="M28.726 29.9584C28.8038 30.0208 28.883 30.0309 28.9687 30.0187C29.0137 30.0122 29.0613 30.0167 29.0598 30.0776C29.0592 30.1003 29.0388 30.137 29.0199 30.1426C28.9223 30.1722 28.826 30.1698 28.7382 30.1074C28.6846 30.0696 28.6311 30.0318 28.5767 29.9954C28.5433 29.9729 28.5262 29.9472 28.5661 29.9194C28.6344 29.8721 28.7006 29.8154 28.7769 29.7888C28.8466 29.7645 28.9285 29.7701 29.0048 29.7725C29.0471 29.774 29.0752 29.8118 29.0562 29.8535C29.0483 29.8709 29.0045 29.8839 28.9803 29.8795C28.8821 29.8618 28.8023 29.8922 28.7257 29.9581L28.726 29.9584Z" fill="white"/>
<path d="M8.28418 15.8971H16.4716V17.3907H8.28418V15.8971ZM9.50779 16.617H11.5591V23.8507C11.5591 24.055 11.5952 24.1898 11.6671 24.2557C11.7389 24.322 11.8651 24.3548 12.0449 24.3548H12.6746C12.8785 24.3548 13.0193 24.316 13.0973 24.2377C13.1751 24.16 13.2144 24.0249 13.2144 23.8327L13.4302 24.8225C13.4302 25.1822 13.3643 25.4433 13.2321 25.6053C13.1 25.7673 12.8422 25.8483 12.4585 25.8483H11.3427C10.7426 25.8483 10.2871 25.7076 9.97517 25.4255C9.66299 25.1438 9.50719 24.685 9.50719 24.0491V16.6176L9.50779 16.617ZM13.2147 16.5809H15.248V27.2516H13.2147V16.5809ZM15.7698 15.8971H20.2503V17.3907H15.7698V15.8971ZM16.9934 17.0128H19.0267V27.2516H16.9934V17.0128ZM19.5485 15.8971H28.4017V17.3907H19.5485V15.8971ZM21.2762 18.6681C21.6959 18.6681 22.0409 18.7071 22.3109 18.7851C22.5808 18.8632 22.8084 18.9891 22.9946 19.163C23.1806 19.3371 23.3574 19.5739 23.5256 19.8736L25.289 22.9328L22.482 27.2513H20.1607L23.4537 22.1769L23.2199 23.4546L21.9245 21.1153C21.7323 20.7676 21.5467 20.5246 21.3666 20.3866C21.1866 20.2488 20.9226 20.1796 20.5749 20.1796H20.0712V18.6681H21.2767H21.2762ZM26.0624 22.375V23.7786H23.9749V22.375H26.0624ZM27.1781 16.8328V27.2513H25.1447V16.8328H27.1781ZM28.3836 12.3883L30.9568 16.0592H28.9595C28.6595 15.8073 28.3567 15.5046 28.0508 15.1504C27.7448 14.7968 27.4181 14.3977 27.0702 13.9537L25.9364 12.3883H28.3836ZM27.6999 15.8971H32.1804V17.3907H27.6999V15.8971ZM28.9235 17.0128H30.9568V27.2516H28.9235V17.0128Z" fill="white"/>
<path d="M16.9746 26.7494C16.9746 27.3486 17.0967 27.9248 17.3178 28.4472C17.6495 29.2312 18.2012 29.8949 18.8968 30.3649C19.2447 30.6 19.6288 30.7865 20.0394 30.9142C20.4497 31.0419 20.8864 31.1105 21.3357 31.1105H27.1661V29.0707H21.3357C21.0123 29.0707 20.7096 29.0056 20.4326 28.8886C20.0172 28.7133 19.661 28.4173 19.4103 28.0463C19.2849 27.861 19.1862 27.657 19.1188 27.44C19.0514 27.2227 19.0147 26.9918 19.0147 26.7494V25.7295H16.9749V26.7494H16.9746Z" fill="white"/>
<path d="M9.53894 14.548V13.7384C9.53894 13.6744 9.52695 13.6325 9.50296 13.6125C9.47897 13.5885 9.435 13.5765 9.37103 13.5765H8.8853C8.47353 13.5765 8.26764 13.3766 8.26764 12.9768V12.0473C8.26764 11.6515 8.48352 11.4537 8.91528 11.4537H9.57492C10.0067 11.4537 10.2226 11.6515 10.2226 12.0473V12.575H9.52695V12.1433C9.52695 12.0793 9.51495 12.0373 9.49097 12.0173C9.46698 11.9934 9.423 11.9814 9.35904 11.9814H9.13117C9.0632 11.9814 9.01723 11.9934 8.99324 12.0173C8.96925 12.0373 8.95726 12.0793 8.95726 12.1433V12.9049C8.95726 12.9688 8.96925 13.0128 8.99324 13.0368C9.01723 13.0568 9.0632 13.0668 9.13117 13.0668H9.60491C10.0247 13.0668 10.2346 13.2627 10.2346 13.6544V14.6439C10.2346 15.0397 10.0167 15.2376 9.58092 15.2376H8.93327C8.49751 15.2376 8.27963 15.0397 8.27963 14.6439V14.1222H8.96925V14.548C8.96925 14.6119 8.98125 14.6559 9.00523 14.6799C9.02922 14.6999 9.0752 14.7099 9.14316 14.7099H9.37103C9.435 14.7099 9.47897 14.6999 9.50296 14.6799C9.52695 14.6559 9.53894 14.6119 9.53894 14.548ZM10.7707 11.4537H11.4604V15.2376H10.7707V11.4537ZM12.6816 15.2376H12.07V11.4537H12.8256L13.4612 13.7024L14.0969 11.4537H14.8524V15.2376H14.2468V12.581L13.7431 14.416H13.1854L12.6816 12.587V15.2376ZM15.4314 11.4537H16.8226C17.2584 11.4537 17.4763 11.6515 17.4763 12.0473V13.2527C17.4763 13.6485 17.2584 13.8463 16.8226 13.8463H16.121V15.2376H15.4314V11.4537ZM16.7867 13.1567V12.1433C16.7867 12.0793 16.7747 12.0373 16.7507 12.0173C16.7267 11.9934 16.6827 11.9814 16.6188 11.9814H16.121V13.3186H16.6188C16.6827 13.3186 16.7267 13.3086 16.7507 13.2886C16.7747 13.2647 16.7867 13.2207 16.7867 13.1567ZM18.6099 14.7099H19.6173V15.2376H17.9203V11.4537H18.6099V14.7099ZM20.6187 14.7099H21.7701V15.2376H19.9231V11.4537H21.7221V11.9814H20.6187V13.0308H21.5482V13.5645H20.6187V14.7099Z" fill="white"/>
</g>
<defs>
<clipPath id="clip0_108_51883">
<rect width="40.3828" height="40.3828" rx="4.66926" fill="white"/>
</clipPath>
</defs>
</svg>
