<svg width="129" height="34" viewBox="0 0 129 34" fill="none" xmlns="http://www.w3.org/2000/svg">
<path d="M13.0684 17.5182C13.0837 17.4302 13.1028 17.3461 13.1181 17.2582L13.1563 17.2506C13.1983 17.3614 13.2366 17.4723 13.2786 17.5832C13.4201 17.9693 13.55 18.3592 13.7068 18.7377C13.9935 19.4143 14.5631 19.6819 15.2474 19.7584C15.5838 19.7966 15.9126 19.7813 16.2337 19.6552C16.8224 19.422 17.0518 18.7568 16.7268 18.2101C16.5472 17.9081 16.249 17.8431 15.9317 17.8316C15.817 17.8278 15.6985 17.8469 15.58 17.8469C15.5418 17.8469 15.4921 17.8355 15.4653 17.8087C15.2436 17.587 14.953 16.8874 14.9454 16.5663C15.0639 16.5778 15.1824 16.5854 15.3009 16.5969C15.5838 16.6198 15.8629 16.6274 16.1381 16.5319C16.3599 16.4554 16.528 16.314 16.6427 16.1075C16.6962 16.0081 16.7001 15.9126 16.6427 15.8132C16.4783 15.5341 16.2452 15.3888 15.9126 15.4233C15.515 15.4615 15.1633 15.6259 14.8116 15.7941C14.6931 15.8476 14.5784 15.9088 14.4522 15.9737C14.2611 15.6526 14.07 15.3353 13.8635 14.9874C14.0623 14.8575 14.2535 14.7122 14.4599 14.6013C14.953 14.3414 15.4768 14.219 16.0349 14.242C16.6007 14.2649 17.0632 14.6587 17.2238 15.255C17.2964 15.5226 17.3079 15.7941 17.197 16.0464C17.0824 16.3025 16.9524 16.5548 16.7956 16.7842C16.7001 16.9256 16.5395 17.0212 16.3828 17.1588C16.5854 17.2315 16.7804 17.3156 16.983 17.3652C17.1856 17.4149 17.3767 17.3347 17.5105 17.1779C17.6405 17.025 17.7552 16.853 17.8622 16.681C17.9998 16.4554 18.1222 16.2222 18.256 15.9929C18.5924 15.4271 19.1123 15.2474 19.7431 15.2971C20.2248 15.3353 20.542 15.6335 20.7982 15.9967C21.1652 16.5128 21.2913 17.1053 21.2952 17.7284C21.299 18.2713 21.2263 18.8026 20.9931 19.2996C20.7561 19.8157 20.3891 20.198 19.8042 20.2859C19.1429 20.3853 18.5542 20.2133 18.2445 19.4143C18.1069 19.055 18.0496 18.6765 18.1184 18.2904C18.1298 18.2178 18.1642 18.1451 18.1986 18.0725C18.2369 18.3057 18.3439 18.4968 18.493 18.6689C18.7797 19.0053 19.1505 19.0703 19.5557 18.9632C20.2439 18.7835 20.7332 18.1757 20.7714 17.4608C20.7867 17.1473 20.7638 16.8377 20.6567 16.5395C20.4885 16.0655 19.9266 15.9011 19.5481 16.2413C19.3684 16.4019 19.2346 16.6198 19.0894 16.8186C18.9403 17.025 18.8065 17.2429 18.6574 17.4494C18.4777 17.694 18.2407 17.8278 17.9234 17.8049C17.7361 17.7896 17.5449 17.8049 17.3309 17.8049C17.3844 17.931 17.4379 18.0304 17.4723 18.1336C17.759 18.9403 17.7399 19.7049 17.1627 20.393C16.7536 20.8785 16.2222 21.0467 15.6067 20.9932C14.6357 20.9091 14.0011 20.3433 13.5462 19.5328C13.2595 19.0167 13.1295 18.4548 13.0951 17.866C13.0913 17.7666 13.076 17.6673 13.0684 17.5717V17.5182Z" fill="#05794B"/>
<path d="M16.6574 13.1865C16.8065 13.3662 16.9365 13.5497 17.0932 13.7065C17.7661 14.3907 18.5497 14.3793 19.2684 13.9358C19.4557 13.8211 19.6316 13.6835 19.8074 13.5497C19.8992 13.4809 19.9604 13.4732 20.0368 13.5803C20.1591 13.7561 20.3159 13.9129 20.4382 14.0887C20.5797 14.2913 20.572 14.3372 20.3809 14.4863C19.731 14.9986 18.997 15.2318 18.1713 15.1209C17.6628 15.0521 17.3035 14.7386 17.0015 14.3449C16.7759 14.0505 16.6727 13.7103 16.6383 13.3471C16.6345 13.305 16.6383 13.2592 16.6421 13.2171L16.6612 13.1865H16.6574Z" fill="#05794B"/>
<path d="M18.2124 12.5371C18.4915 12.7971 18.7591 13.0417 19.0573 13.3208C18.8126 13.5502 18.5794 13.7681 18.35 13.9898C18.2736 14.0624 18.2009 14.0701 18.1168 13.9936C17.9372 13.8331 17.746 13.6839 17.5702 13.5196C17.4746 13.4316 17.4669 13.3437 17.574 13.2367C17.7919 13.015 17.9945 12.7779 18.2124 12.5371Z" fill="#05794B"/>
<path d="M17.0167 25.493C12.3031 25.4586 8.63319 21.7275 8.64849 16.9833C8.66378 12.2468 12.4637 8.17161 16.837 8.19837C22.0361 8.22896 25.7443 11.8645 25.8169 16.7654C25.901 22.278 20.744 25.7377 17.0167 25.493ZM9.86033 17.0827C9.84121 20.8941 13.1021 24.0212 17.0511 24.09C21.3977 24.1665 24.498 20.2863 24.521 16.8227C24.5477 12.7973 21.3098 9.45609 17.3417 9.4408C13.3544 9.42933 9.88326 12.9731 9.86033 17.0789V17.0827Z" fill="#05794B"/>
<path d="M26.6999 26.9027C26.7725 25.7711 26.482 24.846 25.8206 24.0241C25.618 23.7756 25.339 23.4965 25.3198 23.2175C25.2931 22.8352 25.4804 22.4338 25.5759 22.04C25.8971 22.128 26.2641 22.1394 26.5278 22.3153C27.69 23.0837 28.0646 24.3147 28.2023 25.5915C28.3093 26.5701 28.5348 27.3959 29.3453 28.0572C29.6014 28.2675 29.7123 28.8715 29.6206 29.227C29.5135 29.6475 29.0777 29.9342 28.661 29.4334C27.8506 28.4624 26.7266 28.3363 25.5874 28.2025C24.1883 28.0381 23.0185 27.4379 22.3303 26.1725C22.166 25.8667 22.1965 25.2665 22.3992 24.9913C22.7547 24.5096 23.2364 24.6855 23.6416 25.1022C24.4635 25.9432 25.3275 26.7345 26.7037 26.9027H26.6999Z" fill="#05794B"/>
<path d="M17.6249 33.9635C16.5048 32.3694 14.9069 31.4558 14.7157 29.5978C14.6508 28.99 14.6508 28.3592 14.7425 27.759C14.9107 26.6542 15.2586 26.4937 16.4054 26.8989C16.4437 28.3898 15.8511 30.091 17.537 31.2264C18.3513 30.4159 18.4277 29.4564 18.3933 28.4739C18.378 28.084 18.2901 27.6941 18.2978 27.308C18.3054 27.0442 18.3857 26.5892 18.508 26.5586C18.7833 26.4937 19.2114 26.5472 19.3949 26.7345C19.6969 27.0404 20.0257 27.4876 20.0295 27.8814C20.0372 28.7721 20.041 29.7469 19.7007 30.5383C19.2114 31.6813 18.4201 32.6905 17.6249 33.9635Z" fill="#05794B"/>
<path d="M7.59001 7.88006C7.8729 8.60258 8.022 9.42833 8.47309 10.0209C9.3103 11.1219 9.34089 11.55 8.1902 12.5937C6.97836 11.485 6.48521 10.0553 6.18703 8.48791C6.06852 7.86096 5.65947 7.29135 5.38804 6.69116C5.24277 6.37386 5.00578 6.04891 5.00195 5.72779C5.00195 5.46401 5.2275 5.11998 5.45305 4.95942C5.56391 4.88296 6.00735 5.07792 6.13733 5.26524C6.58843 5.91895 7.22302 6.00686 7.93025 6.04127C9.19944 6.10243 10.5145 6.14068 11.5046 7.06199C11.8678 7.3984 12.3036 8.14767 12.1622 8.44203C11.799 9.17985 11.1376 8.72875 10.5642 8.49173C9.71553 8.13621 8.83627 7.84566 7.9723 7.52454C7.84614 7.64687 7.71617 7.76538 7.59001 7.88772V7.88006Z" fill="#05794B"/>
<path d="M17.3653 0.0361328C18.3363 1.67232 19.2844 3.03707 19.961 4.52417C20.2401 5.13582 20.0413 6.03036 19.8769 6.7567C19.7202 7.45246 19.0435 7.49836 18.5312 7.20782C18.3172 7.08549 18.2139 6.49295 18.2981 6.17947C18.6383 4.93322 17.9999 4.06542 17.285 3.1097C16.2605 3.94691 15.9776 4.94087 16.1649 6.15654C16.2146 6.4853 16.0884 7.0702 15.882 7.15812C15.3392 7.38749 14.7657 7.23457 14.544 6.57704C14.4331 6.24827 14.3261 5.87363 14.3758 5.54104C14.6931 3.4117 16.2719 1.99726 17.3614 0.0361328H17.3653Z" fill="#05794B"/>
<path d="M7.6928 26.6701C9.31369 26.8727 10.3612 26.3146 11.3475 25.4965C11.573 25.3092 11.9935 25.3474 12.3223 25.2862C12.3376 25.6379 12.4905 26.0546 12.349 26.326C11.6265 27.7099 10.2312 27.9507 8.87788 28.1839C7.89922 28.3521 6.86706 28.2871 6.21335 29.2887C6.11396 29.4416 5.61316 29.327 5.29586 29.3384C5.3035 28.8567 5.1353 28.0654 5.34938 27.9431C6.4389 27.3199 6.30129 26.2534 6.50772 25.3091C6.75621 24.1623 7.13848 23.0957 8.2127 22.4726C8.4803 22.3197 8.86642 22.3732 9.19901 22.335C9.17989 22.6675 9.24871 23.0345 9.1302 23.3289C8.69822 24.4222 8.20889 25.4926 7.6928 26.6739V26.6701Z" fill="#05794B"/>
<path d="M26.8494 7.38417C25.6605 7.81233 24.6436 8.16403 23.642 8.55014C23.1909 8.72599 22.671 9.11974 22.392 8.50426C22.2773 8.25195 22.5831 7.67472 22.8507 7.39947C23.7529 6.47817 24.9686 6.28318 26.1766 6.27936C27.0444 6.27553 27.7325 6.09969 28.2944 5.38099C28.4703 5.15162 28.9214 5.14016 29.2501 5.0293C29.3725 5.45746 29.728 6.14558 29.5866 6.27555C28.4435 7.28861 28.4856 8.76804 27.9428 10.0066C27.6331 10.7101 27.1858 11.3714 26.6812 11.9525C26.5053 12.1589 25.8708 12.2316 25.6452 12.0748C25.2285 11.7843 25.0947 11.3103 25.5879 10.84C26.4518 10.0143 26.8647 8.98212 26.8533 7.38417H26.8494Z" fill="#05794B"/>
<path d="M26.9784 17.9999C28.3203 17.8241 29.8112 18.516 31.0307 17.308C30.224 16.3064 29.1842 15.9432 27.8959 16.1153C27.5863 16.1573 27.2537 16.0044 26.9287 15.9432C27.1122 15.6221 27.2269 15.2169 27.4945 14.9913C28.3279 14.2956 30.0291 14.4064 31.2677 15.2054C31.9481 15.645 32.5904 16.1497 33.2518 16.6161C33.7334 16.9563 33.8328 17.3959 33.3397 17.717C32.2846 18.409 31.2371 19.1888 30.0673 19.5902C29.3371 19.8425 28.3623 19.575 27.5557 19.3418C27.2002 19.2385 26.9861 18.646 26.707 18.2752C26.7988 18.1834 26.8867 18.0917 26.9784 17.9999Z" fill="#05794B"/>
<path d="M3.21293 17.1627C4.21834 17.9693 5.24288 18.0993 6.35151 17.9425C6.93258 17.8584 7.54807 17.9158 7.52895 18.7033C7.52131 18.9976 7.25752 19.4717 7.01285 19.5443C5.75131 19.9266 4.50507 19.896 3.36968 19.0894C2.67774 18.6001 1.9858 18.1107 1.28239 17.6405C0.850406 17.35 0.628686 17.0174 1.14477 16.6581C2.02785 16.0464 2.88418 15.3124 3.87047 14.9684C4.77267 14.6549 5.83161 14.7275 6.81791 14.7581C7.36458 14.7772 7.72774 15.2665 7.48308 15.8056C7.37986 16.0311 6.81408 16.1993 6.5006 16.142C5.23141 15.9126 4.19925 16.3064 3.20913 17.1589L3.21293 17.1627Z" fill="#05794B"/>
<path d="M45.1816 20.3065V17.1446C45.1816 16.8947 45.1348 16.7308 45.0411 16.6527C44.9474 16.559 44.7757 16.5122 44.5258 16.5122H42.6287C41.7543 16.5122 41.1297 16.3092 40.7549 15.9032C40.3958 15.4816 40.2162 14.9039 40.2162 14.17V10.5396C40.2162 9.80576 40.4114 9.23583 40.8018 8.82985C41.1921 8.42387 41.8401 8.22089 42.7458 8.22089H45.3222C46.2122 8.22089 46.8524 8.42387 47.2427 8.82985C47.6487 9.23583 47.8517 9.80576 47.8517 10.5396V12.6008H45.1348V10.9144C45.1348 10.6646 45.0879 10.5006 44.9943 10.4225C44.9162 10.3288 44.7444 10.282 44.479 10.282H43.589C43.3235 10.282 43.1439 10.3288 43.0503 10.4225C42.9566 10.5006 42.9097 10.6646 42.9097 10.9144V13.8889C42.9097 14.1232 42.9566 14.2871 43.0503 14.3808C43.1439 14.4745 43.3235 14.5213 43.589 14.5213H45.4393C46.3293 14.5213 46.9617 14.7243 47.3364 15.1303C47.7112 15.5207 47.8986 16.0828 47.8986 16.8167V20.6812C47.8986 21.4151 47.6956 21.9851 47.2896 22.391C46.8992 22.797 46.2512 23 45.3456 23H42.816C41.9104 23 41.2546 22.797 40.8486 22.391C40.4583 21.9851 40.2631 21.4151 40.2631 20.6812V18.6436H42.9566V20.3065C42.9566 20.5407 43.0034 20.7047 43.0971 20.7984C43.1908 20.892 43.3704 20.9389 43.6358 20.9389H44.5258C44.7757 20.9389 44.9474 20.892 45.0411 20.7984C45.1348 20.7047 45.1816 20.5407 45.1816 20.3065ZM49.9928 8.22089H52.6863V23H49.9928V8.22089ZM61.6019 19.7912H59.4237L57.4563 12.6476V23H55.0673V8.22089H58.0184L60.5011 17.004L62.9838 8.22089H65.9349V23H63.5693V12.6242L61.6019 19.7912ZM73.4895 14.8727V10.9144C73.4895 10.6646 73.4427 10.5006 73.349 10.4225C73.2709 10.3288 73.0992 10.282 72.8337 10.282H68.8052V8.22089H73.6301C74.5357 8.22089 75.1837 8.42387 75.5741 8.82985C75.9801 9.23583 76.183 9.80576 76.183 10.5396V15.2474C76.183 15.9813 75.9801 16.5512 75.5741 16.9572C75.1837 17.3632 74.5357 17.5662 73.6301 17.5662H69.3439V15.505H72.8337C73.0992 15.505 73.2709 15.4582 73.349 15.3645C73.4427 15.2708 73.4895 15.1069 73.4895 14.8727ZM68.1962 8.22089H70.8897V23H68.1962V8.22089ZM77.9172 8.22089H80.6107V23H77.9172V8.22089ZM79.0648 23V20.9389H84.5455V23H79.0648ZM85.7397 8.22089H88.4566V23H85.7397V8.22089ZM92.087 14.3808V16.4653H87.0981V14.3808H92.087ZM92.7662 8.22089V10.282H86.9576V8.22089H92.7662ZM92.9536 20.9389V23H86.9576V20.9389H92.9536Z" fill="#05794B"/>
<path d="M124.479 26.9694C124.48 26.9601 124.482 26.9511 124.484 26.9418L124.488 26.941C124.492 26.9528 124.496 26.9645 124.501 26.9763C124.516 27.0173 124.53 27.0588 124.546 27.099C124.577 27.1708 124.637 27.1993 124.71 27.2074C124.746 27.2115 124.781 27.2098 124.815 27.1964C124.877 27.1717 124.902 27.101 124.867 27.0429C124.848 27.0108 124.816 27.0039 124.783 27.0027C124.771 27.0023 124.758 27.0043 124.745 27.0043C124.741 27.0043 124.736 27.0031 124.733 27.0003C124.71 26.9767 124.679 26.9024 124.678 26.8683C124.691 26.8695 124.703 26.8703 124.716 26.8715C124.746 26.874 124.775 26.8748 124.805 26.8646C124.828 26.8565 124.846 26.8415 124.858 26.8196C124.864 26.809 124.864 26.7989 124.858 26.7883C124.841 26.7586 124.816 26.7432 124.781 26.7469C124.738 26.7509 124.701 26.7684 124.664 26.7863C124.651 26.7919 124.639 26.7984 124.626 26.8054C124.605 26.7712 124.585 26.7375 124.563 26.7006C124.584 26.6868 124.604 26.6713 124.626 26.6596C124.679 26.6319 124.734 26.6189 124.794 26.6214C124.854 26.6238 124.903 26.6656 124.92 26.729C124.928 26.7574 124.929 26.7863 124.917 26.8131C124.905 26.8403 124.891 26.8671 124.874 26.8914C124.864 26.9065 124.847 26.9166 124.831 26.9312C124.852 26.939 124.873 26.9479 124.894 26.9532C124.916 26.9585 124.936 26.9499 124.95 26.9333C124.964 26.917 124.976 26.8988 124.988 26.8805C125.002 26.8565 125.015 26.8317 125.03 26.8074C125.065 26.7473 125.121 26.7282 125.188 26.7335C125.239 26.7375 125.272 26.7692 125.3 26.8078C125.339 26.8626 125.352 26.9256 125.352 26.9918C125.353 27.0494 125.345 27.1059 125.32 27.1587C125.295 27.2135 125.256 27.2541 125.194 27.2634C125.124 27.274 125.061 27.2557 125.028 27.1709C125.014 27.1327 125.008 27.0925 125.015 27.0515C125.016 27.0437 125.02 27.036 125.024 27.0283C125.028 27.0531 125.039 27.0734 125.055 27.0917C125.085 27.1274 125.125 27.1343 125.168 27.1229C125.241 27.1038 125.293 27.0393 125.297 26.9633C125.298 26.93 125.296 26.8971 125.285 26.8655C125.267 26.8151 125.207 26.7976 125.167 26.8338C125.148 26.8508 125.134 26.874 125.118 26.8951C125.102 26.917 125.088 26.9402 125.072 26.9621C125.053 26.9881 125.028 27.0023 124.994 26.9999C124.974 26.9983 124.954 26.9999 124.931 26.9999C124.937 27.0133 124.943 27.0238 124.946 27.0348C124.977 27.1205 124.975 27.2017 124.913 27.2748C124.87 27.3264 124.814 27.3443 124.748 27.3386C124.645 27.3296 124.578 27.2695 124.529 27.1834C124.499 27.1286 124.485 27.0689 124.481 27.0064C124.481 26.9958 124.479 26.9853 124.479 26.9751V26.9694Z" fill="#05794B"/>
<path d="M124.86 26.5098C124.875 26.5289 124.889 26.5483 124.906 26.565C124.977 26.6377 125.061 26.6365 125.137 26.5894C125.157 26.5772 125.176 26.5626 125.194 26.5483C125.204 26.541 125.21 26.5402 125.219 26.5516C125.232 26.5703 125.248 26.5869 125.261 26.6056C125.276 26.6271 125.275 26.632 125.255 26.6478C125.186 26.7023 125.108 26.727 125.02 26.7153C124.966 26.7079 124.928 26.6746 124.896 26.6328C124.872 26.6015 124.861 26.5654 124.858 26.5268C124.857 26.5224 124.858 26.5175 124.858 26.513L124.86 26.5098H124.86Z" fill="#05794B"/>
<path d="M125.023 26.4414C125.053 26.469 125.081 26.495 125.113 26.5247C125.087 26.549 125.062 26.5722 125.038 26.5957C125.03 26.6034 125.022 26.6043 125.013 26.5961C124.994 26.5791 124.974 26.5632 124.955 26.5458C124.945 26.5364 124.944 26.5271 124.956 26.5157C124.979 26.4922 125 26.467 125.023 26.4414Z" fill="#05794B"/>
<path d="M124.897 27.8167C124.396 27.8131 124.006 27.4167 124.008 26.9127C124.009 26.4096 124.413 25.9767 124.878 25.9795C125.43 25.9828 125.824 26.369 125.832 26.8896C125.841 27.4752 125.293 27.8427 124.897 27.8167ZM124.137 26.9233C124.135 27.3282 124.481 27.6604 124.9 27.6677C125.362 27.6758 125.692 27.2636 125.694 26.8957C125.697 26.4681 125.353 26.1131 124.931 26.1115C124.508 26.1103 124.139 26.4867 124.137 26.9229V26.9233Z" fill="#05794B"/>
<path d="M125.927 27.9668C125.934 27.8466 125.903 27.7483 125.833 27.661C125.812 27.6346 125.782 27.6049 125.78 27.5753C125.777 27.5347 125.797 27.492 125.807 27.4502C125.841 27.4595 125.88 27.4608 125.908 27.4794C126.032 27.5611 126.072 27.6918 126.086 27.8275C126.098 27.9314 126.122 28.0192 126.208 28.0894C126.235 28.1117 126.247 28.1759 126.237 28.2137C126.225 28.2584 126.179 28.2888 126.135 28.2356C126.049 28.1325 125.929 28.1191 125.808 28.1048C125.66 28.0874 125.536 28.0236 125.462 27.8892C125.445 27.8567 125.448 27.793 125.47 27.7637C125.507 27.7125 125.559 27.7312 125.602 27.7755C125.689 27.8648 125.781 27.9489 125.927 27.9668H125.927Z" fill="#05794B"/>
<path d="M124.962 28.7172C124.843 28.5478 124.674 28.4508 124.653 28.2534C124.646 28.1888 124.646 28.1218 124.656 28.0581C124.674 27.9407 124.711 27.9236 124.833 27.9667C124.837 28.1251 124.774 28.3058 124.953 28.4264C125.04 28.3403 125.048 28.2384 125.044 28.134C125.042 28.0926 125.033 28.0512 125.034 28.0101C125.035 27.9821 125.043 27.9338 125.056 27.9305C125.085 27.9236 125.131 27.9293 125.15 27.9492C125.182 27.9817 125.217 28.0292 125.218 28.0711C125.219 28.1657 125.219 28.2692 125.183 28.3533C125.131 28.4747 125.047 28.5819 124.962 28.7172Z" fill="#05794B"/>
<path d="M123.896 25.9459C123.926 26.0226 123.942 26.1103 123.99 26.1733C124.079 26.2902 124.082 26.3357 123.96 26.4466C123.831 26.3288 123.779 26.1769 123.747 26.0104C123.734 25.9438 123.691 25.8833 123.662 25.8196C123.647 25.7859 123.621 25.7513 123.621 25.7172C123.621 25.6892 123.645 25.6527 123.669 25.6356C123.681 25.6275 123.728 25.6482 123.742 25.6681C123.79 25.7375 123.857 25.7469 123.932 25.7505C124.067 25.757 124.207 25.7611 124.312 25.859C124.35 25.8947 124.397 25.9743 124.382 26.0056C124.343 26.0839 124.273 26.036 124.212 26.0108C124.122 25.9731 124.028 25.9422 123.937 25.9081C123.923 25.9211 123.909 25.9337 123.896 25.9467V25.9459Z" fill="#05794B"/>
<path d="M124.936 25.1133C125.039 25.2871 125.14 25.4321 125.212 25.5901C125.241 25.655 125.22 25.7501 125.203 25.8272C125.186 25.9011 125.114 25.906 125.06 25.8751C125.037 25.8621 125.026 25.7992 125.035 25.7659C125.071 25.6335 125.004 25.5413 124.928 25.4398C124.819 25.5287 124.789 25.6343 124.809 25.7635C124.814 25.7984 124.8 25.8605 124.779 25.8699C124.721 25.8942 124.66 25.878 124.636 25.8081C124.625 25.7732 124.613 25.7334 124.619 25.6981C124.652 25.4719 124.82 25.3216 124.936 25.1133H124.936Z" fill="#05794B"/>
<path d="M123.907 27.9429C124.079 27.9645 124.19 27.9052 124.295 27.8183C124.319 27.7984 124.364 27.8024 124.399 27.7959C124.4 27.8333 124.417 27.8776 124.402 27.9064C124.325 28.0534 124.177 28.079 124.033 28.1038C123.929 28.1216 123.819 28.1147 123.75 28.2211C123.739 28.2374 123.686 28.2252 123.652 28.2264C123.653 28.1752 123.635 28.0912 123.658 28.0782C123.774 28.012 123.759 27.8987 123.781 27.7984C123.808 27.6765 123.848 27.5632 123.962 27.497C123.991 27.4808 124.032 27.4865 124.067 27.4824C124.065 27.5178 124.072 27.5567 124.06 27.588C124.014 27.7042 123.962 27.8179 123.907 27.9434V27.9429Z" fill="#05794B"/>
<path d="M125.943 25.8937C125.817 25.9392 125.709 25.9766 125.602 26.0176C125.554 26.0363 125.499 26.0781 125.469 26.0127C125.457 25.9859 125.49 25.9246 125.518 25.8953C125.614 25.7975 125.743 25.7768 125.871 25.7764C125.964 25.7759 126.037 25.7573 126.096 25.6809C126.115 25.6565 126.163 25.6553 126.198 25.6436C126.211 25.689 126.249 25.7621 126.234 25.7759C126.112 25.8836 126.117 26.0407 126.059 26.1723C126.026 26.247 125.979 26.3173 125.925 26.379C125.906 26.4009 125.839 26.4087 125.815 26.392C125.771 26.3612 125.757 26.3108 125.809 26.2608C125.901 26.1731 125.945 26.0635 125.943 25.8937H125.943Z" fill="#05794B"/>
<path d="M125.957 27.0218C126.099 27.0031 126.257 27.0766 126.387 26.9483C126.301 26.8419 126.191 26.8033 126.054 26.8216C126.021 26.8261 125.986 26.8098 125.951 26.8033C125.971 26.7692 125.983 26.7262 126.011 26.7022C126.1 26.6283 126.281 26.6401 126.412 26.7249C126.485 26.7716 126.553 26.8252 126.623 26.8748C126.674 26.9109 126.685 26.9576 126.632 26.9918C126.52 27.0653 126.409 27.1481 126.285 27.1907C126.207 27.2175 126.104 27.1891 126.018 27.1643C125.98 27.1534 125.957 27.0904 125.928 27.051C125.937 27.0413 125.947 27.0316 125.957 27.0218Z" fill="#05794B"/>
<path d="M123.431 26.9324C123.538 27.0181 123.647 27.0319 123.765 27.0153C123.826 27.0063 123.892 27.0124 123.89 27.0961C123.889 27.1273 123.861 27.1777 123.835 27.1854C123.701 27.226 123.568 27.2228 123.448 27.1371C123.374 27.0851 123.301 27.0331 123.226 26.9832C123.18 26.9523 123.157 26.917 123.211 26.8788C123.305 26.8138 123.396 26.7359 123.501 26.6993C123.597 26.666 123.709 26.6737 123.814 26.677C123.872 26.679 123.911 26.731 123.885 26.7882C123.874 26.8122 123.814 26.8301 123.78 26.824C123.646 26.7996 123.536 26.8414 123.431 26.932L123.431 26.9324Z" fill="#05794B"/>
<path d="M95.3496 7.61602H106.597V9.66769H95.3496V7.61602ZM97.0305 8.6049H99.8485V18.542C99.8485 18.8226 99.898 19.0078 99.9967 19.0984C100.095 19.1893 100.269 19.2344 100.516 19.2344H101.381C101.661 19.2344 101.854 19.1812 101.961 19.0736C102.068 18.9668 102.122 18.7812 102.122 18.5172L102.419 19.8769C102.419 20.3711 102.328 20.7297 102.147 20.9523C101.965 21.1748 101.611 21.2861 101.084 21.2861H99.5512C98.7268 21.2861 98.101 21.0928 97.6726 20.7053C97.2437 20.3183 97.0297 19.688 97.0297 18.8145V8.60571L97.0305 8.6049ZM102.123 8.55535H104.916V23.2139H102.123V8.55535ZM105.633 7.61602H111.788V9.66769H105.633V7.61602ZM107.314 9.14868H110.107V23.2139H107.314V9.14868ZM110.824 7.61602H122.985V9.66769H110.824V7.61602ZM113.197 11.4225C113.774 11.4225 114.248 11.4761 114.618 11.5833C114.989 11.6905 115.302 11.8635 115.558 12.1023C115.813 12.3415 116.056 12.6668 116.287 13.0786L118.709 17.281L114.853 23.2135H111.665L116.188 16.2426L115.867 17.9978L114.088 14.7843C113.824 14.3067 113.569 13.9729 113.321 13.7832C113.074 13.594 112.711 13.4989 112.234 13.4989H111.542V11.4225H113.198H113.197ZM119.772 16.5147V18.4429H116.904V16.5147H119.772ZM121.304 8.90136V23.2135H118.511V8.90136H121.304ZM122.961 2.7959L126.495 7.83856H123.752C123.34 7.49256 122.924 7.0767 122.503 6.59018C122.083 6.10448 121.634 5.55623 121.156 4.94625L119.599 2.7959H122.961ZM122.021 7.61602H128.176V9.66769H122.021V7.61602ZM123.702 9.14868H126.495V23.2139H123.702V9.14868Z" fill="#05794B"/>
<path d="M107.287 22.5241C107.287 23.3473 107.455 24.1388 107.759 24.8564C108.214 25.9334 108.972 26.8451 109.928 27.4908C110.406 27.8137 110.933 28.07 111.497 28.2454C112.061 28.4208 112.661 28.5151 113.278 28.5151H121.287V25.7129H113.278C112.834 25.7129 112.418 25.6236 112.037 25.4627C111.467 25.2219 110.977 24.8154 110.633 24.3057C110.461 24.0511 110.325 23.7709 110.233 23.4728C110.14 23.1743 110.09 22.8571 110.09 22.5241V21.123H107.288V22.5241H107.287Z" fill="#05794B"/>
</svg>
